{"title":"Bloodrayne: The Third Reich (2010) Unrated Directors Cut 1080P","uid":8936909,"size":1804697551,"categoryP":"video","categoryS":"hd___movies","magnet":"?xt=urn:btih:eceebc210705699e2aff92207da4160b9ea9c348&amp;dn=Bloodrayne%3A+The+Third+Reich+%282010%29+Unrated+Directors+Cut+1080P&amp;tr=udp%3A%2F%2Ftracker.openbittorrent.com%3A80&amp;tr=udp%3A%2F%2Fopen.demonii.com%3A1337&amp;tr=udp%3A%2F%2Ftracker.coppersurfer.tk%3A6969&amp;tr=udp%3A%2F%2Fexodus.desync.com%3A6969","seeders":1,"leechers":0,"uploader":"jmanwf","files":1,"time":1379589225,"description":" &lt;a href=&quot;http://www.imdb.com/title/tt1153546/&quot; rel=&quot;nofollow&quot; target=&quot;_NEW&quot;&gt;http://www.imdb.com/title/tt1153546/&lt;/a&gt;\n\n\n\n\nRuntime 1 Hour 19 Minutes 5 Seconds\n\n\n\n\nIncludes Directors Commentary\n\n\n\nFormat                                   : MPEG-4\nFormat profile                           : Base Media / Version 2\nCodec ID                                 : mp42\nFile size                                : 1.68 GiB\nDuration                                 : 1h 19mn\nOverall bit rate mode                    : Variable\nOverall bit rate                         : 3 042 Kbps\nEncoded date                             : UTC 2013-09-17 21:07:58\nTagged date                              : UTC 2013-09-18 02:42:02\nWriting application                      : HandBrake 0.9.9 2013052900\n\nVideo\nID                                       : 1\nFormat                                   : AVC\nFormat/Info                              : Advanced Video Codec\nFormat profile                           : &lt;a class=&quot;__cf_email__&quot; href=&quot;/cdn-cgi/l/email-protection&quot; data-cfemail=&quot;1e537f77705e522a302e&quot;&gt;[email&amp;#160;protected]&lt;/a&gt;&lt;script cf-hash='f9e31' type=&quot;text/javascript&quot;&gt;\n/* &lt;![CDATA[ */!function(){try{var t=&quot;currentScript&quot;in document?document.currentScript:function(){for(var t=document.getElementsByTagName(&quot;script&quot;),e=t.length;e--;)if(t[e].getAttribute(&quot;cf-hash&quot;))return t[e]}();if(t&amp;&amp;t.previousSibling){var e,r,n,i,c=t.previousSibling,a=c.getAttribute(&quot;data-cfemail&quot;);if(a){for(e=&quot;&quot;,r=parseInt(a.substr(0,2),16),n=2;a.length-n;n+=2)i=parseInt(a.substr(n,2),16)^r,e+=String.fromCharCode(i);e=document.createTextNode(e),c.parentNode.replaceChild(e,c)}}}catch(u){}}();/* ]]&gt; */&lt;/script&gt;\nFormat settings, CABAC                   : Yes\nFormat settings, ReFrames                : 4 frames\nCodec ID                                 : avc1\nCodec ID/Info                            : Advanced Video Coding\nDuration                                 : 1h 19mn\nBit rate mode                            : Variable\nBit rate                                 : 2 568 Kbps\nWidth                                    : 1 920 pixels\nHeight                                   : 1 080 pixels\nDisplay aspect ratio                     : 16:9\nFrame rate mode                          : Variable\nFrame rate                               : 23.976 fps\nMinimum frame rate                       : 23.968 fps\nMaximum frame rate                       : 23.981 fps\nColor space                              : YUV\nChroma subsampling                       : 4:2:0\nBit depth                                : 8 bits\nScan type                                : Progressive\nBits/(Pixel*Frame)                       : 0.052\nStream size                              : 1.42 GiB (84%)\nWriting library                          : x264 core 130 r2273 b3065e6\nEncoding settings                        : cabac=1 // deblock=1:0:0 / \nEncoded date                             : UTC 2013-09-17 21:07:58\nTagged date                              : UTC 2013-09-18 02:42:02\nColor primaries                          : BT.709\nTransfer characteristics                 : BT.709\nMatrix coefficients                      : BT.709\n\nAudio #1\nID                                       : 2\nFormat                                   : AAC\nFormat/Info                              : Advanced Audio Codec\nFormat profile                           : LC\nCodec ID                                 : 40\nDuration                                 : 1h 19mn\nBit rate mode                            : Variable\nBit rate                                 : 160 Kbps\nMaximum bit rate                         : 197 Kbps\nChannel(s)                               : 2 channels\nChannel positions                        : Front: L R\nSampling rate                            : 48.0 KHz\nCompression mode                         : Lossy\nDelay relative to video                  : 83ms\nStream size                              : 90.5 MiB (5%)\nLanguage                                 : English\nEncoded date                             : UTC 2013-09-17 21:07:58\nTagged date                              : UTC 2013-09-18 02:42:01\n","torrent":{"xt":"urn:btih:eceebc210705699e2aff92207da4160b9ea9c348","amp;dn":"Bloodrayne%3A+The+Third+Reich+%282010%29+Unrated+Directors+Cut+1080P","amp;tr":["udp%3A%2F%2Ftracker.openbittorrent.com%3A80","udp%3A%2F%2Fopen.demonii.com%3A1337","udp%3A%2F%2Ftracker.coppersurfer.tk%3A6969","udp%3A%2F%2Fexodus.desync.com%3A6969"],"infoHash":"eceebc210705699e2aff92207da4160b9ea9c348","infoHashBuffer":{"type":"Buffer","data":[236,238,188,33,7,5,105,158,42,255,146,32,125,164,22,11,158,169,195,72]},"announce":[],"urlList":[]}}